<?xml version="1.0" encoding="UTF-8"?>
<!DOCTYPE svg PUBLIC "-//W3C//DTD SVG 1.1//EN" "http://www.w3.org/Graphics/SVG/1.1/DTD/svg11.dtd" [
  <!ENTITY fill_color "#FFFFFF">
  <!ENTITY stroke_color "#010101">
]>
<svg
   xmlns="http://www.w3.org/2000/svg"
   version="1.1"
   width="55"
   height="55"
   viewBox="0 0 55 55"
   id="svg2"
   xml:space="preserve"><g
   id="layer1"
   style="fill:&fill_color;"><path
     d="m 36.912473,6.3835716 c 2.857769,8.3410014 6.875787,31.4726254 5.581886,44.2949674 l -29.710039,0 C 20.166815,34.473063 18.906389,19.888135 18.186145,14.846431 24.725277,13.722202 31.33032,11.814205 36.912473,6.3835716 z"
     id="path3788"
     style="fill:&fill_color;;stroke:&stroke_color;;stroke-width:3.5;stroke-linecap:butt;stroke-linejoin:miter;stroke-miterlimit:4;stroke-opacity:1;stroke-dasharray:none" /><path
     d="m 23.768031,13.225884 -2.16073,-5.2217647 9.363164,-3.7812778 2.16073,4.8616429"
     id="path3790"
     style="fill:&fill_color;;stroke:&stroke_color;;stroke-width:3.5;stroke-linecap:butt;stroke-linejoin:miter;stroke-miterlimit:4;stroke-opacity:1;stroke-dasharray:none" /></g><path
   d="m 33.775168,31.191275 a 12.550336,12.550336 0 1 1 -25.1006713,0 12.550336,12.550336 0 1 1 25.1006713,0 z"
   transform="matrix(0.38328879,0,0,0.38328879,13.089592,19.236009)"
   id="path2997"
   style="fill:&stroke_color;;fill-opacity:1;stroke:&stroke_color;;stroke-width:3.91349816;stroke-linecap:round;stroke-linejoin:round;stroke-miterlimit:4;stroke-opacity:1;stroke-dasharray:none;stroke-dashoffset:0" /><path
   d="m 33.775168,31.191275 a 12.550336,12.550336 0 1 1 -25.1006713,0 12.550336,12.550336 0 1 1 25.1006713,0 z"
   transform="matrix(0.50432689,0,0,0.50432689,21.613927,13.799602)"
   id="path3767"
   style="fill:&stroke_color;;fill-opacity:1;stroke:&stroke_color;;stroke-width:2.97426128;stroke-linecap:round;stroke-linejoin:round;stroke-miterlimit:4;stroke-opacity:1;stroke-dasharray:none;stroke-dashoffset:0" /><path
   d="m 33.959732,39.127517 c 3.583343,5.667946 7.1788,3.809105 9.411681,2.739568 3.741459,-1.792136 2.150081,-8.800841 -1.290876,-9.752991"
   id="path3787"
   style="fill:&fill_color;;stroke:&stroke_color;;stroke-width:1.5;stroke-linecap:butt;stroke-linejoin:miter;stroke-miterlimit:4;stroke-opacity:1;stroke-dasharray:none" /><path
   d="M 13.104027,36.174497 C 23.624175,42.080534 37.18096,43.42958 44.66443,27.315436"
   id="path3781"
   style="fill:none;stroke:&stroke_color;;stroke-width:1.5;stroke-linecap:butt;stroke-linejoin:miter;stroke-miterlimit:4;stroke-opacity:1;stroke-dasharray:none" /><path
   d="m 33.775168,31.191275 a 12.550336,12.550336 0 1 1 -25.1006713,0 12.550336,12.550336 0 1 1 25.1006713,0 z"
   transform="matrix(0.12827016,0,0,0.12827016,18.50232,27.190365)"
   id="path3783"
   style="fill:&fill_color;;fill-opacity:1;stroke:none" /><path
   d="m 33.775168,31.191275 a 12.550336,12.550336 0 1 1 -25.1006713,0 12.550336,12.550336 0 1 1 25.1006713,0 z"
   transform="matrix(0.12827016,0,0,0.12827016,29.391582,25.529291)"
   id="path3785"
   style="fill:&fill_color;;fill-opacity:1;stroke:none" /><path
   d="m 38.573826,36.174497 c 2.583892,-0.369128 3.875838,1.47651 3.875838,1.47651"
   id="path3789"
   style="fill:&fill_color;;stroke:&stroke_color;;stroke-width:1.5;stroke-linecap:butt;stroke-linejoin:miter;stroke-miterlimit:4;stroke-opacity:1;stroke-dasharray:none" /><path
   d="m 15.891195,24.121374 6.251039,-2.184098"
   id="path3806"
   style="fill:none;stroke:&stroke_color;;stroke-width:1.5;stroke-linecap:butt;stroke-linejoin:miter;stroke-miterlimit:4;stroke-opacity:1;stroke-dasharray:none" /><path
   d="m 32.234273,17.343139 7.36247,2.40247"
   id="path3808"
   style="fill:none;stroke:&stroke_color;;stroke-width:2.5;stroke-linecap:butt;stroke-linejoin:miter;stroke-miterlimit:4;stroke-opacity:1;stroke-dasharray:none" /></svg>